<svg fill="none" height="208" viewBox="0 0 208 208" width="208" xmlns="http://www.w3.org/2000/svg">
    <path clip-rule="evenodd" d="M104 208C161.438 208 208 161.438 208 104C208 46.5624 161.438 0 104 0C46.5624 0 0 46.5624 0 104C0 161.438 46.5624 208 104 208ZM104 198.459C156.168 198.459 198.459 156.168 198.459 104C198.459 51.8319 156.168 9.54128 104 9.54128C51.8319 9.54128 9.54128 51.8319 9.54128 104C9.54128 156.168 51.8319 198.459 104 198.459Z"
          fill="white"
          fill-rule="evenodd"/>
    <path d="M74.5013 82.7156L76.4849 79.4128L81.5678 137.394L69.997 125.651V120.388C65.2102 124.86 60.0619 127.096 54.5519 127.096C47.5956 127.096 41.8446 124.585 37.299 119.562C32.7877 114.436 30.5321 108.037 30.5321 100.365C30.5321 92.8303 32.7877 86.5516 37.299 81.5287C41.8103 76.5057 47.458 73.9943 54.242 73.9943C60.0963 73.9943 67.2076 74.5963 71.8566 79.4128L74.5013 82.7156ZM42.4129 100.365C42.4129 105.181 43.7042 109.103 46.2871 112.131C48.9387 115.193 52.2791 116.724 56.3083 116.724C60.6129 116.724 64.091 115.244 66.7427 112.286C69.3943 109.224 70.7202 105.336 70.7202 100.623C70.7202 95.9094 69.3943 92.0218 66.7427 88.9599C64.091 85.9668 60.6473 84.4701 56.4115 84.4701C52.4169 84.4701 49.0764 85.984 46.3904 89.0115C43.7387 92.0734 42.4129 95.8578 42.4129 100.365Z"
          fill="white"/>
    <path d="M75.1625 89.3211V88.6606L76.4849 79.4129C78.7233 77.0734 80.452 76.1101 83.0968 74.789C85.7416 73.4679 89.1439 73.4679 91.6923 73.4679C97.3744 73.4679 103.831 76.4713 107.137 81.4255C110.788 76.4713 115.729 73.9943 121.963 73.9943C133.293 73.9943 138.957 80.8578 138.957 94.5849V125.651H127.283V97.7328C127.283 92.9163 126.698 89.5103 125.527 87.515C124.321 85.4851 122.341 84.4701 119.586 84.4701C116.384 84.4701 114.042 85.6743 112.561 88.0826C111.115 90.4908 110.392 94.3612 110.392 99.6938V125.651H98.7175V97.8877C98.7175 88.9427 96.1346 84.4701 90.9691 84.4701C87.6976 84.4701 85.3042 85.6915 83.789 88.1342C82.3082 90.5768 81.5678 94.4301 81.5678 99.6938V137.395L69.9969 125.651L75.1625 89.3211Z"
          fill="white"/>
    <path d="M138.802 165.349L127.283 153.606V75.991L132.686 80.734L134.669 81.4255C139.25 76.8498 146.723 73.4679 152.542 73.4679C159.464 73.4679 167.127 77.1436 171.604 82.2353C176.149 87.2926 178.422 93.6745 178.422 101.381C178.422 108.915 176.166 115.194 171.655 120.217C167.179 125.206 161.531 127.7 154.712 127.7C148.823 127.7 143.554 125.343 138.906 120.63L138.802 165.349ZM166.541 101.433C166.541 96.616 165.232 92.6941 162.615 89.6665C159.963 86.6045 156.623 85.0736 152.594 85.0736C148.324 85.0736 144.863 86.553 142.212 89.5117C139.559 92.4704 138.234 96.358 138.234 101.175C138.234 105.888 139.559 109.775 142.212 112.837C144.829 115.83 148.272 117.327 152.542 117.327C156.571 117.327 159.895 115.813 162.512 112.786C165.198 109.758 166.541 105.974 166.541 101.433Z"
          fill="white"/>
</svg>
